<svg id="Layer_1" data-name="Layer 1" xmlns="http://www.w3.org/2000/svg" viewBox="0 0 403.58 67.83"><defs><style>.cls-1{fill:#59504b;}.cls-2{fill:#d2b6d7;}.cls-3{fill:#aca7a5;}</style></defs><title>mh-logo</title><path class="cls-1" d="M8.81,35a16.59,16.59,0,0,1-4.23.42A16.55,16.55,0,0,1,.36,35v-2.2a16.19,16.19,0,0,1,4.22-.43,16.23,16.23,0,0,1,4.23.43Z"/><path class="cls-2" d="M16.3,40.29a23.84,23.84,0,0,1-5.81,2.2,23.9,23.9,0,0,1-6.13,1l-.83-3.12a23.85,23.85,0,0,1,5.8-2.2,24,24,0,0,1,6.14-1Z"/><path class="cls-1" d="M67.33,35a16.5,16.5,0,0,1-4.23.42A16.51,16.51,0,0,1,58.89,35v-2.2a16.14,16.14,0,0,1,4.21-.43,16.14,16.14,0,0,1,4.23.43Z"/><path class="cls-2" d="M64.17,27.46a23.75,23.75,0,0,1-5.82,2.21,24.09,24.09,0,0,1-6.13,1l-.83-3.11a24.09,24.09,0,0,1,5.8-2.2,24.1,24.1,0,0,1,6.15-1Z"/><path class="cls-2" d="M21.84,48.21A24.19,24.19,0,0,1,17.9,53,24.12,24.12,0,0,1,13.1,57l-2.28-2.28a23.44,23.44,0,0,1,3.92-4.8,23.56,23.56,0,0,1,4.82-3.94Z"/><path class="cls-2" d="M56.88,13.17A24.37,24.37,0,0,1,52.94,18a24.08,24.08,0,0,1-4.81,3.92l-2.27-2.28a23.61,23.61,0,0,1,3.92-4.81,23.67,23.67,0,0,1,4.82-3.93Z"/><path class="cls-2" d="M30.59,52.29a23.53,23.53,0,0,1-1,6.15,24.09,24.09,0,0,1-2.2,5.8l-3.11-.84a24,24,0,0,1,1-6.12,24.28,24.28,0,0,1,2.21-5.82Z"/><path class="cls-2" d="M43.42,4.43a24.1,24.1,0,0,1-1,6.15,23.86,23.86,0,0,1-2.2,5.79l-3.11-.83a23.43,23.43,0,0,1,1-6.12A23.83,23.83,0,0,1,40.3,3.6Z"/><path class="cls-2" d="M40.22,51.46a24.07,24.07,0,0,1,2.2,5.82,23.81,23.81,0,0,1,1,6.12l-3.12.84a23.85,23.85,0,0,1-2.2-5.8,24.1,24.1,0,0,1-1-6.15Z"/><path class="cls-2" d="M27.39,3.6A24,24,0,0,1,29.6,9.42a24,24,0,0,1,1,6.12l-3.11.83a23.86,23.86,0,0,1-2.2-5.79,24.1,24.1,0,0,1-1-6.15Z"/><path class="cls-2" d="M48.13,45.93A23.56,23.56,0,0,1,53,49.87a23.79,23.79,0,0,1,3.93,4.8L54.6,57A24.08,24.08,0,0,1,49.79,53a24,24,0,0,1-3.93-4.82Z"/><path class="cls-2" d="M13.1,10.89a24,24,0,0,1,4.82,3.93,24.08,24.08,0,0,1,3.92,4.81l-2.28,2.28A23.9,23.9,0,0,1,14.76,18a23.56,23.56,0,0,1-3.94-4.82Z"/><path class="cls-2" d="M52.22,37.17a24.1,24.1,0,0,1,6.15,1,23.78,23.78,0,0,1,5.8,2.21l-.83,3.11a23.9,23.9,0,0,1-6.13-1,24.07,24.07,0,0,1-5.82-2.2Z"/><path class="cls-2" d="M4.36,24.35a24,24,0,0,1,6.14,1,23.85,23.85,0,0,1,5.8,2.2l-.83,3.11a24,24,0,0,1-6.12-1,23.52,23.52,0,0,1-5.82-2.21Z"/><path class="cls-1" d="M12.71,47.39a16.47,16.47,0,0,1-3.45,2.49A16.1,16.1,0,0,1,5.4,51.61l-1.1-1.9a16.34,16.34,0,0,1,3.44-2.48,16.08,16.08,0,0,1,3.87-1.74Z"/><path class="cls-1" d="M63.4,18.13A16.27,16.27,0,0,1,60,20.61a16.14,16.14,0,0,1-3.86,1.74L55,20.44A16.51,16.51,0,0,1,58.42,18a16.61,16.61,0,0,1,3.88-1.75Z"/><path class="cls-1" d="M22.28,56.15A16.07,16.07,0,0,1,20.53,60a16.14,16.14,0,0,1-2.47,3.44l-1.91-1.11a16.69,16.69,0,0,1,1.74-3.86,16,16,0,0,1,2.48-3.44Z"/><path class="cls-1" d="M51.54,5.47A16.08,16.08,0,0,1,49.8,9.34a16.34,16.34,0,0,1-2.48,3.44l-1.9-1.1a16.1,16.1,0,0,1,1.73-3.86,16.47,16.47,0,0,1,2.49-3.45Z"/><path class="cls-1" d="M35,59a16.5,16.5,0,0,1,.42,4.23A16.41,16.41,0,0,1,35,67.4h-2.2a16,16,0,0,1-.43-4.21A16.14,16.14,0,0,1,32.75,59Z"/><path class="cls-1" d="M35,.43a16.59,16.59,0,0,1,.42,4.23A16.55,16.55,0,0,1,35,8.88h-2.2a16.19,16.19,0,0,1-.43-4.22A16.23,16.23,0,0,1,32.75.43Z"/><path class="cls-1" d="M47.32,55.06a16.17,16.17,0,0,1,2.49,3.44,16.3,16.3,0,0,1,1.73,3.86l-1.9,1.11A16.34,16.34,0,0,1,47.16,60a16.22,16.22,0,0,1-1.74-3.88Z"/><path class="cls-1" d="M18.06,4.37a16.27,16.27,0,0,1,2.48,3.45,16,16,0,0,1,1.74,3.86l-1.91,1.1A16.14,16.14,0,0,1,17.9,9.34a16.46,16.46,0,0,1-1.75-3.87Z"/><path class="cls-1" d="M56.09,45.49A16.28,16.28,0,0,1,60,47.23a16.34,16.34,0,0,1,3.44,2.48l-1.1,1.9a16.08,16.08,0,0,1-3.87-1.74A16.34,16.34,0,0,1,55,47.39Z"/><path class="cls-1" d="M5.4,16.22A16.46,16.46,0,0,1,9.27,18a16.14,16.14,0,0,1,3.44,2.47l-1.1,1.91a16.48,16.48,0,0,1-3.86-1.74A16.27,16.27,0,0,1,4.3,18.13Z"/><path class="cls-3" d="M20.75,34.49a8.32,8.32,0,0,1-2.21.23,8.32,8.32,0,0,1-2.21-.23V33.34a8.68,8.68,0,0,1,2.21-.22,8.68,8.68,0,0,1,2.21.22Z"/><path class="cls-3" d="M51.37,34.49a8.36,8.36,0,0,1-2.22.23,8.28,8.28,0,0,1-2.2-.23V33.34a8.63,8.63,0,0,1,2.2-.22,8.72,8.72,0,0,1,2.22.22Z"/><path class="cls-3" d="M22.79,41a8.69,8.69,0,0,1-1.8,1.3,8.21,8.21,0,0,1-2,.9l-.57-1a8.25,8.25,0,0,1,1.8-1.3,8.64,8.64,0,0,1,2-.91Z"/><path class="cls-3" d="M49.31,25.66A9,9,0,0,1,47.5,27a8.44,8.44,0,0,1-2,.91l-.57-1a8.31,8.31,0,0,1,1.79-1.3,8.58,8.58,0,0,1,2-.91Z"/><path class="cls-3" d="M27.8,45.55a8.42,8.42,0,0,1-.92,2,8.87,8.87,0,0,1-1.29,1.8l-1-.58a8.44,8.44,0,0,1,.91-2A8.25,8.25,0,0,1,26.8,45Z"/><path class="cls-3" d="M43.11,19a8.42,8.42,0,0,1-.92,2,8.87,8.87,0,0,1-1.29,1.8l-1-.58a8.44,8.44,0,0,1,.91-2,8.25,8.25,0,0,1,1.3-1.8Z"/><path class="cls-3" d="M34.42,47a8.23,8.23,0,0,1,.23,2.21,8.32,8.32,0,0,1-.23,2.21H33.27a8.68,8.68,0,0,1-.22-2.21A8.58,8.58,0,0,1,33.27,47Z"/><path class="cls-3" d="M34.42,16.4a8.23,8.23,0,0,1,.23,2.21,8.32,8.32,0,0,1-.23,2.21H33.27a8.68,8.68,0,0,1-.22-2.21,8.58,8.58,0,0,1,.22-2.21Z"/><path class="cls-3" d="M40.9,45a8.69,8.69,0,0,1,1.3,1.8,8.44,8.44,0,0,1,.91,2l-1,.58a10.91,10.91,0,0,1-2.21-3.83Z"/><path class="cls-3" d="M25.59,18.46a8.69,8.69,0,0,1,1.3,1.8,8.44,8.44,0,0,1,.91,2l-1,.58a8.61,8.61,0,0,1-1.3-1.8,8.58,8.58,0,0,1-.91-2Z"/><path class="cls-3" d="M45.48,40a10.91,10.91,0,0,1,3.83,2.21l-.58,1a8.08,8.08,0,0,1-2-.9,8.69,8.69,0,0,1-1.8-1.3Z"/><path class="cls-3" d="M19,24.66a8.58,8.58,0,0,1,2,.91,8.25,8.25,0,0,1,1.8,1.3l-.58,1a8.64,8.64,0,0,1-2-.91,8.69,8.69,0,0,1-1.8-1.3Z"/><path class="cls-1" d="M220.06,25.12H203.62a2.68,2.68,0,0,0-2.53,2.45h0V25.12h0V14.54h-6.69V53.25h6.69V29.61h0v2.91a3,3,0,0,1,2.6-2.91h12.09a3.29,3.29,0,0,1,3,3.43V53.3h6.69c0-9.27,0-22.18,0-22.25a5.65,5.65,0,0,0-5.36-5.93"/><path class="cls-1" d="M135.09,23.93H119.67c-1.85.2-3.26,1.31-3.27,2.65,0-1.34-1.42-2.45-3.26-2.65H96.36a2.53,2.53,0,0,0-2.48,2.4h0V23.88H87.24v5.57c0,.13,0,.27,0,.41s0,23.39,0,23.39h6.67V35.63h0V31.84a3.3,3.3,0,0,1,3-3.43h10.81a3.22,3.22,0,0,1,2.77,2.93V53.2h6.77V31.36A3.22,3.22,0,0,1,120,28.43h10.79a3.28,3.28,0,0,1,3,3.43V53.25h6.68s0-23.28,0-23.39a5.64,5.64,0,0,0-5.36-5.93"/><path class="cls-1" d="M255.73,45.85a3,3,0,0,1-2.66,2.91H241.38a3.29,3.29,0,0,1-3-3.43v-1.2a3.28,3.28,0,0,1,3-3.43h14.35v4.71c0,.07,0,.14,0,.21s0,.14,0,.22m-2.82,2.92h0Zm4.15-23.68H232.6v4.49h20.16a3.29,3.29,0,0,1,3,3.43v3.22H237.07a5.64,5.64,0,0,0-5.36,5.93v5.16a5.65,5.65,0,0,0,5.36,5.94H253.8a2.65,2.65,0,0,0,2.18-2.4h0v2.41h6.41c0-9.27,0-22.18,0-22.24A5.65,5.65,0,0,0,257.06,25.09Z"/><rect class="cls-1" x="146.74" y="14.68" width="6.68" height="4.67"/><rect class="cls-1" x="146.74" y="25.09" width="6.68" height="28.21"/><rect class="cls-1" x="370.06" y="14.68" width="6.68" height="4.67"/><rect class="cls-1" x="383.03" y="14.68" width="6.69" height="38.62"/><path class="cls-1" d="M159.72,31V47.29a5.65,5.65,0,0,0,5.36,5.93h23V48.72h-18.7a3.29,3.29,0,0,1-3-3.43V33a3.29,3.29,0,0,1,3-3.43h18.7V25.07h-23A5.65,5.65,0,0,0,159.72,31"/><path class="cls-1" d="M275.39,33.05a3.3,3.3,0,0,1,3-3.43h11.08a3.3,3.3,0,0,1,3,3.43l0,3.06h-17V33.05M288,40.69l11.18,0,0-9.6a5.66,5.66,0,0,0-5.36-5.94H274.05a5.66,5.66,0,0,0-5.35,5.94v5.17c0,.09,0,.19,0,.28,0,7.89,0,10.68,0,10.74a5.65,5.65,0,0,0,5.36,5.93h24.1V48.7H278.37a3.3,3.3,0,0,1-3-3.43V40.7H288Z"/><rect class="cls-1" x="396.01" y="14.68" width="6.68" height="38.62"/><rect class="cls-1" x="370.06" y="25.09" width="6.68" height="28.21"/><rect class="cls-1" x="305.42" y="14.54" width="6.68" height="38.69"/><path class="cls-1" d="M358.4,25.12H342a2.69,2.69,0,0,0-2.53,2.45h0V25.12h0V14.54h-6.68V53.25h6.68V29.61h0v2.91A3,3,0,0,1,342,29.61h12.08a3.28,3.28,0,0,1,3,3.43V53.3h6.7c0-9.27,0-22.18,0-22.25a5.66,5.66,0,0,0-5.36-5.93"/></svg>